<svg xmlns="http://www.w3.org/2000/svg" width="18" height="13" viewBox="0 0 18 13">
  <defs>
    <style>
      .cls-1 {
        fill: #004990;
        fill-rule: evenodd;
      }
    </style>
  </defs>
  <path class="cls-1" d="M789.669,653.531c0-2.5-2.956-4.042-9.206-4.536h0a0.421,0.421,0,0,0-.451.382v8.408a0.42,0.42,0,0,0,.451.382h0.409c3.733-.45,6.366-1.372,7.731-2.531A2.7,2.7,0,0,0,789.669,653.531ZM796.79,649h-3.623a5.958,5.958,0,0,1,1.949,1.077,2.961,2.961,0,0,1,1.036,1.469,2.666,2.666,0,0,1-1.118,2.81,15.959,15.959,0,0,1-6.121,2.643c-1.563.389-3.359,0.851-5.293,1.173h13.17a0.42,0.42,0,0,0,.451-0.382v-8.408A0.421,0.421,0,0,0,796.79,649Zm-15.5,11.045a0.565,0.565,0,0,0-.435-0.164h-0.474v1.767h0.474a0.572,0.572,0,0,0,.435-0.163,1.122,1.122,0,0,0,.137-0.737A1.016,1.016,0,0,0,781.293,660.04Zm0.267,1.706a0.95,0.95,0,0,1-.663.229H780v-2.431h0.9a0.95,0.95,0,0,1,.663.229,1.208,1.208,0,0,1,.26.97A1.283,1.283,0,0,1,781.56,661.746Zm1.333,0.229v-2.431h0.389v2.431h-0.389Zm2.509-2.1h-0.577v0.76H785.4A0.384,0.384,0,1,0,785.4,659.876Zm0.45,2.1-0.541-1.024h-0.486v1.024h-0.39v-2.431h1a0.718,0.718,0,0,1,.8.711,0.645,0.645,0,0,1-.512.645l0.591,1.075h-0.454Zm1.446,0v-2.431h1.641v0.332h-1.251v0.709h1.067v0.328h-1.067v0.73h1.251v0.332H787.3Zm3.463,0.02a0.961,0.961,0,0,1-.675-0.259,2.045,2.045,0,0,1,0-1.952,0.957,0.957,0,0,1,.675-0.26,0.869,0.869,0,0,1,.915.748h-0.4a0.508,0.508,0,0,0-.519-0.417,0.528,0.528,0,0,0-.379.147,1.917,1.917,0,0,0,0,1.515,0.528,0.528,0,0,0,.379.147,0.51,0.51,0,0,0,.522-0.416h0.393A0.872,0.872,0,0,1,790.761,662Zm3.062-1.918v1.9h-0.631v-1.9h-0.63v-0.533h1.893v0.533h-0.632Zm2.7,1.9h-0.47l-0.847-2.431h0.653L796.3,660.9l0.425-1.359h0.656Zm1.105-.334h0.044c0.051,0,.1,0,0.1-0.049s-0.042-.05-0.083-0.05h-0.059v0.1Zm-0.064-.155h0.141a0.1,0.1,0,0,1,.129.106,0.1,0.1,0,0,1-.1.1l0.108,0.146h-0.075l-0.107-.144h-0.036v0.144h-0.064v-0.355Zm0.12,0.429a0.244,0.244,0,1,0-.251-0.244A0.241,0.241,0,0,0,797.687,661.915Zm0-.547a0.3,0.3,0,1,1-.32.3A0.313,0.313,0,0,1,797.687,661.368Z" transform="translate(-780 -649)"/>
</svg>
