<svg xmlns="http://www.w3.org/2000/svg" width="19" height="15" viewBox="0 0 19 15">
  <defs>
    <style>
      .cls-1 {
        fill: #004990;
        fill-rule: evenodd;
      }
    </style>
  </defs>
  <path class="cls-1" d="M405.933,1231.65a3.992,3.992,0,0,0,3.291-4.16l-0.168-3.49h-6.813l-0.25,3.49a3.99,3.99,0,0,0,3.29,4.16v6.18l-2.881,1.01h6.412l-2.881-1.01v-6.18Zm11.311,1.81-6.852.6v1.28a0.629,0.629,0,0,1,.135-0.02,0.945,0.945,0,0,1,0,1.89c-0.046,0-.089-0.01-0.135-0.01v1.8h5.5a0.136,0.136,0,0,1,0-.02,0.514,0.514,0,1,1,1.027,0c0,0.01,0,.01,0,0.02H421v-4.94Zm-4.437,4.95a0.525,0.525,0,1,1,.514-0.52A0.521,0.521,0,0,1,412.807,1238.41Zm1.558-3.69a0.515,0.515,0,0,1-.513-0.52h1.027A0.515,0.515,0,0,1,414.365,1234.72Zm4.1,2.96a0.945,0.945,0,1,1,.931-0.95A0.937,0.937,0,0,1,418.466,1237.68Zm1.279-2.4a1.07,1.07,0,0,1-1.065-1.08h2.131A1.07,1.07,0,0,1,419.745,1235.28Z" transform="translate(-402 -1224)"/>
</svg>
