<svg xmlns="http://www.w3.org/2000/svg" width="16" height="9.969" viewBox="0 0 16 9.969">
  <defs>
    <style>
      .cls-1 {
        fill: #004990;
        fill-rule: evenodd;
      }
    </style>
  </defs>
  <path class="cls-1" d="M790.075,868.57a1.347,1.347,0,0,1,0,2.007,1.614,1.614,0,0,1-2.16,0,1.352,1.352,0,0,1,0-2.007A1.619,1.619,0,0,1,790.075,868.57Zm4.157-1.966-1.423,1.32a5.807,5.807,0,0,0-7.628-.012l-1.417-1.316a7.937,7.937,0,0,1,10.468.008h0Zm2.768-2.57-1.419,1.318a9.957,9.957,0,0,0-13.169-.015L781,864.022a12.074,12.074,0,0,1,16,.012h0Z" transform="translate(-781 -861.031)"/>
</svg>
