<svg xmlns="http://www.w3.org/2000/svg" width="16" height="17" viewBox="0 0 16 17">
  <defs>
    <style>
      .cls-1 {
        fill: #004990;
        fill-rule: evenodd;
      }
    </style>
  </defs>
  <path class="cls-1" d="M416,1384.91l-12,.02,0.484,10.08a1.031,1.031,0,0,0,1.074.98h8.928a1.031,1.031,0,0,0,1.075-.98l0.106-2.2A3.96,3.96,0,1,0,416,1384.91Zm-0.248,6.03,0.2-4.16A2.089,2.089,0,1,1,415.754,1390.94Zm-7.789-9.39a17.941,17.941,0,0,0,2.438.28c0.578,0.08,2.261.74,0.847,1.12-0.857.24-1.763,0.3-2.6,0.61-0.063.02-.443,0.14-0.32,0.26a2.147,2.147,0,0,0,1.092.55c0.232,0.06,1.134-.31.868-0.37a1.8,1.8,0,0,1-.825-0.39c0.61-.16,1.259-0.23,1.862-0.38a2.3,2.3,0,0,0,1.49-.74c0.525-1.11-2.814-1.18-3.289-1.22-0.657-.06-3.722-0.82-1.883-1.35a15.3,15.3,0,0,1,4.57-.53c0.2,0.01,1.192-.37.689-0.39a19.8,19.8,0,0,0-4.54.46c-0.344.07-2.921,0.59-2.339,1.33A3.991,3.991,0,0,0,407.965,1381.55Z" transform="translate(-404 -1379)"/>
</svg>
