<svg xmlns="http://www.w3.org/2000/svg" width="16" height="16" viewBox="0 0 16 16">
  <defs>
    <style>
      .cls-1 {
        fill: #004990;
        fill-rule: evenodd;
      }
    </style>
  </defs>
  <path class="cls-1" d="M789.99,756.67a0.992,0.992,0,0,1-.992.991h0a0.991,0.991,0,0,1-.99-0.991V754A0.991,0.991,0,0,1,789,753h0a0.992,0.992,0,0,1,.992.991v2.675Zm0,11.334A0.992,0.992,0,0,1,789,769h0a0.991,0.991,0,0,1-.99-0.991v-2.675a0.991,0.991,0,0,1,.99-0.991h0a0.992,0.992,0,0,1,.992.991V768Zm2.771-9.366a0.99,0.99,0,0,1-1.4,0h0a0.989,0.989,0,0,1,0-1.4l1.891-1.89a0.989,0.989,0,0,1,1.4,0h0a0.986,0.986,0,0,1,0,1.4Zm-8.015,8.014a0.989,0.989,0,0,1-1.4,0h0a0.99,0.99,0,0,1,0-1.4l1.891-1.891a0.992,0.992,0,0,1,1.4,0h0a0.992,0.992,0,0,1,0,1.4Zm6.614-1.891a0.99,0.99,0,0,1,0-1.4h0a0.993,0.993,0,0,1,1.4,0l1.89,1.892a0.989,0.989,0,0,1,0,1.4h0a0.99,0.99,0,0,1-1.4,0Zm-8.014-8.015a0.986,0.986,0,0,1,0-1.4h0a0.989,0.989,0,0,1,1.4,0l1.892,1.892a0.992,0.992,0,0,1,0,1.4h0a0.992,0.992,0,0,1-1.4,0Zm9.981,5.242a0.991,0.991,0,0,1-.991-0.991h0a0.991,0.991,0,0,1,.991-0.991H796a0.991,0.991,0,0,1,.991.991h0a0.991,0.991,0,0,1-.991.991h-2.675Zm-11.335,0A0.992,0.992,0,0,1,781,761h0a0.993,0.993,0,0,1,.991-0.991h2.676a0.991,0.991,0,0,1,.99.991h0a0.99,0.99,0,0,1-.99.991h-2.676Z" transform="translate(-781 -753)"/>
</svg>
