<svg xmlns="http://www.w3.org/2000/svg" width="16" height="13" viewBox="0 0 16 13">
  <defs>
    <style>
      .cls-1 {
        fill: #004990;
        fill-rule: evenodd;
      }
    </style>
  </defs>
  <path class="cls-1" d="M791.392,814.374h-6.617a0.823,0.823,0,0,0-.81.835v3.407a0.822,0.822,0,0,0,.81.834h6.617a0.822,0.822,0,0,0,.81-0.834v-3.407A0.823,0.823,0,0,0,791.392,814.374Zm-6.144-5.076a1.043,1.043,0,1,0,1.013,1.043A1.03,1.03,0,0,0,785.248,809.3Zm5.941,0a1.043,1.043,0,1,0,1.013,1.043A1.029,1.029,0,0,0,791.189,809.3Zm3.241,1.043A3.29,3.29,0,0,0,791.189,807a3.2,3.2,0,0,1-5.941,0,3.339,3.339,0,0,0-.135,6.669c0.023,0,.045.006,0.067,0.006h6.347a2.17,2.17,0,0,0,.816-0.221A3.335,3.335,0,0,0,794.43,810.341Zm-9.182,2.155a2.156,2.156,0,1,1,2.093-2.155A2.127,2.127,0,0,1,785.248,812.5Zm5.941,0a2.156,2.156,0,1,1,2.093-2.155A2.128,2.128,0,0,1,791.189,812.5Zm6.009,1.6-4.456,1.874v2.055l4.456,1.982a0.822,0.822,0,0,0,.81-0.834V814.93A0.822,0.822,0,0,0,797.2,814.1Z" transform="translate(-782 -807)"/>
</svg>
