<svg
  xmlns="http://www.w3.org/2000/svg"
>
  <path fill-rule="evenodd" fill="rgb(0, 73, 144)"
        d="M15.676,17.883 L12.071,13.738 C13.306,12.280 14.067,10.291 14.067,8.094 C14.067,3.628 10.918,0.006 7.034,0.006 C3.150,0.006 0.000,3.628 0.000,8.094 C0.000,12.562 3.150,16.184 7.034,16.184 C8.226,16.184 9.350,15.841 10.334,15.239 L14.154,19.632 C14.365,19.874 14.640,19.994 14.915,19.994 C15.190,19.994 15.465,19.874 15.676,19.632 C16.095,19.149 16.095,18.367 15.676,17.883 ZM2.151,8.094 C2.151,4.994 4.337,2.479 7.034,2.479 C9.731,2.479 11.917,4.994 11.917,8.094 C11.917,11.196 9.731,13.711 7.034,13.711 C4.337,13.711 2.151,11.196 2.151,8.094 Z"/>
</svg>
