<svg xmlns="http://www.w3.org/2000/svg" width="15" height="15" viewBox="0 0 15 15">
  <metadata><?xpacket begin="﻿" id="W5M0MpCehiHzreSzNTczkc9d"?>
<x:xmpmeta xmlns:x="adobe:ns:meta/" x:xmptk="Adobe XMP Core 5.6-c138 79.159824, 2016/09/14-01:09:01        ">
   <rdf:RDF xmlns:rdf="http://www.w3.org/1999/02/22-rdf-syntax-ns#">
      <rdf:Description rdf:about=""/>
   </rdf:RDF>
</x:xmpmeta>
                                                                                                    
                                                                                                    
                                                                                                    
                                                                                                    
                                                                                                    
                                                                                                    
                                                                                                    
                                                                                                    
                                                                                                    
                                                                                                    
                                                                                                    
                                                                                                    
                                                                                                    
                                                                                                    
                                                                                                    
                                                                                                    
                                                                                                    
                                                                                                    
                                                                                                    
                                                                                                    
                           
<?xpacket end="w"?></metadata>
<defs>
    <style>
      .cls-1 {
        fill: #004990;
        fill-rule: evenodd;
      }
    </style>
  </defs>
  <path class="cls-1" d="M412.882,648h-8.759A3.13,3.13,0,0,0,401,651.117v8.763A3.129,3.129,0,0,0,404.123,663h8.759A3.129,3.129,0,0,0,416,659.88v-8.763A3.13,3.13,0,0,0,412.882,648Zm-6.373,6.175a0.942,0.942,0,1,1-1.883,0v-2.318a0.942,0.942,0,1,1,1.883,0v2.318Zm3.26,5.4a0.941,0.941,0,0,1-1.882,0v-0.716a0.941,0.941,0,1,1,1.882,0v0.716Zm2.812-5.4a0.941,0.941,0,1,1-1.882,0v-2.318a0.941,0.941,0,1,1,1.882,0v2.318Z" transform="translate(-401 -648)"/>
</svg>
