<?xml version="1.0" encoding="UTF-8" standalone="no"?>
<svg
   xmlns:dc="http://purl.org/dc/elements/1.1/"
   xmlns:cc="http://creativecommons.org/ns#"
   xmlns:rdf="http://www.w3.org/1999/02/22-rdf-syntax-ns#"
   xmlns:svg="http://www.w3.org/2000/svg"
   xmlns="http://www.w3.org/2000/svg"
   viewBox="0 0 294.36493 310.46555"
   height="310.46555"
   width="294.36493"
   id="svg3681"
   version="1.1">
  <metadata
     id="metadata3687">
    <rdf:RDF>
      <cc:Work
         rdf:about="">
        <dc:format>image/svg+xml</dc:format>
        <dc:type
           rdf:resource="http://purl.org/dc/dcmitype/StillImage" />
        <dc:title></dc:title>
      </cc:Work>
    </rdf:RDF>
  </metadata>
  <defs
     id="defs3685">
    <clipPath
       id="clipPath3713"
       clipPathUnits="userSpaceOnUse">
      <rect
         y="0"
         x="960.76874"
         height="338.54361"
         width="319.23126"
         id="rect3715" />
    </clipPath>
  </defs>
  <path
     id="path4531"
     d="m 28.1141,307.29279 c 0,-6.72723 10.01516,-15.06028 18.19095,-15.13567 1.70626,-0.0158 4.54185,-1.75547 6.8498,-4.20261 6.48432,-6.87538 11.8732,-26.12023 17.14264,-61.22007 4.92182,-32.78427 7.11308,-46.21822 9.34638,-57.29975 1.33818,-6.64002 1.98016,-12.50107 1.42662,-13.02458 -0.55353,-0.52351 -4.58181,-0.19028 -8.95172,0.7405 -15.94632,3.39656 -42.23855,1.49187 -53.39429,-3.86805 -3.48356,-1.67371 -7.96516,-4.90119 -9.9591,-7.17216 C 4.0652,140.75718 0,129.78276 0,122.44734 v -5.79606 l 8.25088,-3.94035 C 25.8633,104.29982 45.20269,93.505186 58.5443,84.638755 73.34826,74.800485 91.114592,58.809131 90.220602,56.127134 89.337462,53.477723 83.61339,52.627132 60.88626,51.768085 40.19033,50.985813 39.37843,50.861311 41.9398,48.86275 44.74058,46.677386 66.50106,33.992129 69.67407,32.695072 c 1.00844,-0.412227 6.50902,-2.738118 12.22352,-5.168646 12.840242,-5.461296 31.29741,-10.41249 35.68748,-9.573276 6.70556,1.28185 7.70602,4.006298 7.70602,20.985146 v 15.444507 l 3.79452,0.369749 c 3.53573,0.344532 3.979,-0.07229 6.49958,-6.11176 C 142.45768,32.17383 152.00221,16.157372 158.67456,9.8950059 165.52407,3.4663809 174.06311,0.01409088 183.14908,7.6877928e-5 187.40695,-0.00652312 190.7073,0.41268088 190.48319,0.93156888 190.2591,1.4504579 187.24783,7.6386149 183.79149,14.68303 c -7.32005,14.9191 -10.85907,28.21596 -12.56318,47.202416 -0.86772,9.667934 -2.16104,15.960249 -4.46164,21.707039 -3.46727,8.661061 -3.42358,12.830781 0.20621,19.684405 1.06817,2.01688 10.36491,22.36904 20.65941,45.22702 23.86833,52.99737 31.11485,66.04942 44.78307,80.66079 11.85924,12.67756 14.18844,11.59302 25.25642,-11.7602 8.2701,-17.44976 17.57621,-44.60328 25.28945,-73.79 5.29705,-20.04392 5.9978,-21.95134 8.22048,-22.37579 3.42217,-0.65351 3.8883,4.77821 2.33256,27.18125 -3.76466,54.21215 -19.38275,130.41709 -32.02105,156.23943 l -2.84173,5.80617 H 187.99864 117.3458 v -4.09747 c 0,-2.2536 1.24859,-5.9665 2.77465,-8.25088 5.62765,-8.42407 14.85399,-10.16602 35.03452,-6.61455 5.66844,0.99755 10.51351,1.60647 10.76683,1.35315 0.25333,-0.25332 -1.03367,-3.95806 -2.86,-8.23276 -2.70871,-6.34 -3.34125,-9.72567 -3.43272,-18.37357 -0.0947,-8.95224 0.28581,-11.13896 2.44604,-14.05705 3.51167,-4.74364 14.06814,-8.872 22.80563,-8.91868 8.12255,-0.0434 8.97164,-1.44537 2.4447,-4.03664 -12.93996,-5.13729 -24.45535,-3.61049 -31.48914,4.17508 -5.90155,6.53231 -6.70936,9.16977 -6.70936,21.90592 v 10.92159 l -9.47323,-0.029 c -7.03936,-0.0215 -11.22912,-0.75134 -16.30765,-2.84052 -8.78463,-3.6138 -16.83968,-9.44595 -20.52047,-14.85757 -1.59932,-2.35143 -3.325678,-4.27527 -3.836338,-4.27527 -0.51067,0 -1.18513,9.76353 -1.4988,21.69675 -0.56663,21.55676 -1.65053,27.86534 -5.56542,32.39233 -1.67106,1.93233 -4.844772,2.13911 -32.830412,2.13911 H 28.1141 Z M 93.120852,118.60403 c 8.191808,-5.32293 7.357458,-5.38372 17.903808,1.30457 3.06758,1.94541 5.96493,3.53709 6.43856,3.53709 0.47364,0 -0.17469,-3.98792 -1.44071,-8.86205 -1.26603,-4.87413 -2.3113,-9.2217 -2.32282,-9.66128 -0.0115,-0.43957 3.27735,-3.46489 7.3086,-6.722934 4.03125,-3.25804 7.3316,-6.33626 7.33412,-6.84048 0.002,-0.50422 -3.15828,-0.97159 -7.02397,-1.03861 -11.62678,-0.20155 -12.75948,-0.86593 -16.22287,-9.515441 -1.69542,-4.23416 -3.56589,-7.785854 -4.15659,-7.892646 -0.59071,-0.106784 -2.503888,3.466436 -4.251528,7.940496 -3.51981,9.010951 -4.50568,9.546071 -17.642012,9.575991 -3.24942,0.007 -5.72469,0.50268 -5.50059,1.10063 0.2241,0.59795 3.57029,3.6535 7.43598,6.7901 3.86568,3.136604 7.022562,6.360264 7.015292,7.163694 -0.007,0.80343 -0.832372,4.16098 -1.833532,7.46122 -1.86083,6.13405 -2.34183,10.50131 -1.15659,10.50131 0.36503,0 4.016722,-2.17874 8.114852,-4.84166 z"
     style="fill:#004990;fill-opacity:1;stroke-width:1.22235203" />
</svg>
