<svg xmlns="http://www.w3.org/2000/svg" width="18" height="14.97" viewBox="0 0 18 14.97">
  <defs>
    <style>
      .cls-1 {
        fill: #004990;
        fill-rule: evenodd;
      }
    </style>
  </defs>
  <path class="cls-1" d="M408.646,1339.49a1.118,1.118,0,0,1,.474-1.07v-1.56a1.3,1.3,0,0,1,.952-1.4h0.2l0.291-3.81a0.225,0.225,0,0,0-.191-0.25h-7.176a0.224,0.224,0,0,0-.19.25l0.427,5.57-0.237,5.44a0.235,0.235,0,0,0,.189.26h6.013a1.532,1.532,0,0,1-.274-0.89v-1.57A0.88,0.88,0,0,1,408.646,1339.49Zm1.159,2.63a0.868,0.868,0,0,0,.86.88h8.855a0.867,0.867,0,0,0,.86-0.88v-1.19H409.805v1.19Zm10.575-5.17a0.876,0.876,0,0,0-.86-0.89h-8.855a0.877,0.877,0,0,0-.86.89v1.18H420.38v-1.18Zm0,2H409.805a0.63,0.63,0,0,0,0,1.26H420.38A0.63,0.63,0,0,0,420.38,1338.95Zm-12.05-6.26h-0.048a0.383,0.383,0,0,1-.317-0.43l0.491-3.92a0.385,0.385,0,0,1,.16-0.27,0.357,0.357,0,0,1,.3-0.05l2.5,0.69a0.391,0.391,0,0,1,.259.47,0.373,0.373,0,0,1-.452.27l-2.089-.59-0.437,3.5A0.372,0.372,0,0,1,408.33,1332.69Z" transform="translate(-403 -1328.03)"/>
</svg>
