<svg xmlns="http://www.w3.org/2000/svg" width="16" height="16" viewBox="0 0 16 16">
  <metadata><?xpacket begin="﻿" id="W5M0MpCehiHzreSzNTczkc9d"?>
<x:xmpmeta xmlns:x="adobe:ns:meta/" x:xmptk="Adobe XMP Core 5.6-c138 79.159824, 2016/09/14-01:09:01        ">
   <rdf:RDF xmlns:rdf="http://www.w3.org/1999/02/22-rdf-syntax-ns#">
      <rdf:Description rdf:about=""/>
   </rdf:RDF>
</x:xmpmeta>
                                                                                                    
                                                                                                    
                                                                                                    
                                                                                                    
                                                                                                    
                                                                                                    
                                                                                                    
                                                                                                    
                                                                                                    
                                                                                                    
                                                                                                    
                                                                                                    
                                                                                                    
                                                                                                    
                                                                                                    
                                                                                                    
                                                                                                    
                                                                                                    
                                                                                                    
                                                                                                    
                           
<?xpacket end="w"?></metadata>
<defs>
    <style>
      .cls-1 {
        fill: #004990;
        fill-rule: evenodd;
      }
    </style>
  </defs>
  <path class="cls-1" d="M415.878,835.022a2.5,2.5,0,0,1-.408-1.506,3.683,3.683,0,0,1-3.369-1.624,3.427,3.427,0,0,1,.033-3.8A2.654,2.654,0,0,1,410.64,827a2.512,2.512,0,0,1-.346-1.949,8.269,8.269,0,0,0-9.053,6.049,7.994,7.994,0,0,0,6.084,9.673A8.342,8.342,0,0,0,417,835.9,2.006,2.006,0,0,1,415.878,835.022ZM405.2,829.1l0.544,1.02,0.681,0.81h-0.953l-1.5-.81Zm0.219,6.827-0.812-.242a2.753,2.753,0,0,1-.942-1.039c-0.114-.459,1.315-0.752,1.455-0.841l1.619,0.739Zm3.588,3.1-1.226-1.014,0.9-.751,0.933,0.252,0.616,1.309Zm0.6-5.506-1.454-.564a16.685,16.685,0,0,1,1.454-1.6l1.62,0.738Z" transform="translate(-401 -825)"/>
</svg>
