<svg id="Layer_1" data-name="Layer 1" xmlns="http://www.w3.org/2000/svg" viewBox="0 0 43.71 15.48">
  <defs>
    <style>.cls-1{fill:#fff;}</style>
  </defs>
  <title>TrueBlue_icon</title>
  <path class="cls-1"
        d="M21.85 3.18l1.04 3.2h3.37l-2.72 1.98 1.04 3.2-2.73-1.98-2.72 1.98 1.04-3.2-2.72-1.98h3.36l1.04-3.2z"/>
  <path class="cls-1"
        d="M38.43 6.83l5.28-3.39H28.29a7.74 7.74 0 0 0-12.87 0H0l5.28 3.39 8.86 1.31a7.74 7.74 0 0 0 .17 1.27H7.02l2.95 2.13 6 1.21a7.72 7.72 0 0 0 11.75 0l6-1.2 2.95-2.13H29.4a7.74 7.74 0 0 0 .17-1.28zm-16.58 6.18a5.27 5.27 0 1 1 5.27-5.27 5.27 5.27 0 0 1-5.27 5.27z"/>
</svg>
