<svg id="Layer_1" data-name="Layer 1" xmlns="http://www.w3.org/2000/svg" viewBox="0 0 72.65 7.46">
  <defs>
    <style>.cls-1{fill:#fff;}</style>
  </defs>
  <title>TrueBlue_logo</title>
  <path class="cls-1"
        d="M3.51 1.62v5.8H1.77v-5.8H.03V0h5.21v1.62zM12.96 7.42l-1.25-2.75h-.59v2.75H9.38V.02h2.8a2.31 2.31 0 0 1 2.41 2.38 2.13 2.13 0 0 1-1.15 1.93l1.53 3.09zm-.85-5.77h-1v1.5h1a.75.75 0 1 0 0-1.5zM21.58 7.42a2.58 2.58 0 0 1-2.67-2.66v-4.8h1.74v4.76c0 .69.36 1.08.93 1.08s1-.39 1-1.08V-.04h1.74v4.8a2.59 2.59 0 0 1-2.74 2.66zM28.75 7.42V.02h4.76v1.62h-3v1.24h2.62V4.5h-2.62v1.3h3v1.62zM42.73 7.42h-2.75V.02h2.66a1.9 1.9 0 0 1 2.08 2 1.7 1.7 0 0 1-1 1.62 1.79 1.79 0 0 1 1.15 1.76 1.91 1.91 0 0 1-2.14 2.02zM42.58.73h-1.84V3.3h1.84a1.29 1.29 0 1 0 0-2.57zM42.66 4h-1.92v2.71h1.92a1.36 1.36 0 1 0 0-2.71zM49.78 7.42V.02h.73v6.7h3.61v.7zM60.68 7.42a2.39 2.39 0 0 1-2.46-2.5v-5h.75v4.9a1.72 1.72 0 1 0 3.42 0v-4.9h.75v5a2.39 2.39 0 0 1-2.46 2.5zM68.27 7.42V.02h4.38v.71h-3.63v2.61h3.1v.71h-3.1v2.67h3.63v.7z"/>
</svg>
