<svg xmlns="http://www.w3.org/2000/svg" viewBox="0 0 43.84 14.36">
  <defs>
    <style>.cls-1,.cls-2{fill:#fff;}.cls-2{fill-rule:evenodd;}</style>
  </defs>
  <title>Jetblue logo</title>
  <g id="Layer_1" data-name="Layer 1">
    <path class="cls-1"
          d="M1.38 3.25h1.64v8.78a2.23 2.23 0 0 1-2.38 2.28H0v-1.54h.47c.56 0 .92-.26.92-.87V3.25M1.38 0h1.64v1.64H1.38zM5.71 6.64a1.73 1.73 0 1 1 3.44 0H5.71m5.08 1.35V6.64A3.31 3.31 0 0 0 7.43 3.2c-1.57 0-3.36 1-3.36 4.19 0 3.34 1.94 4.14 3.62 4.14a3.75 3.75 0 0 0 2.95-1.28l-1.19-1a2.57 2.57 0 0 1-1.78.79 1.83 1.83 0 0 1-1.95-2zM12.09.82h1.64v2.43h1.19V4.5h-1.19v4.75c0 .45.18.61.58.61h.61v1.54h-.85a1.87 1.87 0 0 1-2-2V4.55h-.82v-1.3h.82zM20.37 6.36a1.73 1.73 0 1 1 0 3.44H17.7V6.36h2.67m-4.4 5.08h4.82a3.12 3.12 0 0 0 3.18-3.25 2.56 2.56 0 0 0-1.86-2.64 2.5 2.5 0 0 0 1.69-2.46c0-1.8-1.16-3.07-3.39-3.07h-4.43v11.44m4.24-9.9a1.65 1.65 0 1 1 0 3.28h-2.51V1.56zM24.91 0h1.64v9.34c0 .37.21.56.61.56h.56v1.54H27c-1.19 0-2.09-.51-2.09-2zM28.41 3.25h1.64V8.1a1.62 1.62 0 1 0 3.23 0V3.25h1.64v8.15h-1.64v-.87a2.6 2.6 0 0 1-2.11 1 2.74 2.74 0 0 1-2.73-2.83zM37.44 6.64a1.71 1.71 0 0 1 1.72-1.9c1 0 1.67.66 1.72 1.9h-3.44m5.08 1.35V6.64a3.31 3.31 0 0 0-3.36-3.44c-1.57 0-3.36 1-3.36 4.19 0 3.34 1.94 4.14 3.61 4.14a3.75 3.75 0 0 0 2.94-1.32l-1.19-1a2.57 2.57 0 0 1-1.78.79 1.83 1.83 0 0 1-1.94-2z"/>
    <path class="cls-2"
          d="M43.12 3.15a.73.73 0 0 1 .72.73.72.72 0 0 1-.72.72.73.73 0 0 1-.73-.72.73.73 0 0 1 .73-.73zm.57.73a.57.57 0 1 0-.57.58.55.55 0 0 0 .57-.58z"/>
    <path class="cls-1"
          d="M43.24 3.94a.22.22 0 0 0 .21-.25c0-.17-.1-.25-.29-.25h-.32v.81h.14v-.34h.08l.24.34h.17zm-.25-.13v-.24h.13c.1 0 .19 0 .19.12s-.11.12-.22.12z"/>
  </g>
</svg>
